<svg xmlns="http://www.w3.org/2000/svg" width="64" height="64">
    <path style="stroke:none;fill-rule:nonzero;fill:#000;fill-opacity:1" d="M57.867 35.602 55.2 38.266 49.734 32.8l2.664-2.668a1.47 1.47 0 0 1 2.055 0l3.414 3.414a1.47 1.47 0 0 1 0 2.055M32 50.508l16.16-16.16 5.465 5.465L37.492 56H32v-5.492m0-13.176c-11.785 0-21.332 4.773-21.332 10.668v5.332h16v-5.039l10.664-10.668A44.851 44.851 0 0 0 32 37.332m0-26.664c-5.89 0-10.668 4.773-10.668 10.664C21.332 27.222 26.109 32 32 32c5.89 0 10.668-4.777 10.668-10.668 0-5.89-4.777-10.664-10.668-10.664Zm0 0"/>
</svg>
